<svg width="16" height="16" viewBox="0 0 16 16" fill="none" xmlns="http://www.w3.org/2000/svg"><path d="M10 12.6667H6M10 12.6667V5.73333C10 5.62725 9.95786 5.5255 9.88284 5.45049C9.80783 5.37547 9.70609 5.33333 9.6 5.33333H6.4C6.29391 5.33333 6.19217 5.37547 6.11716 5.45049C6.04214 5.5255 6 5.62725 6 5.73333V12.6667M10 12.6667H13.6C13.7061 12.6667 13.8078 12.6245 13.8828 12.5495C13.9579 12.4745 14 12.3728 14 12.2667V10.0667C14 9.96058 13.9579 9.85884 13.8828 9.78382C13.8078 9.70881 13.7061 9.66666 13.6 9.66666H10.4C10.2939 9.66666 10.1922 9.70881 10.1172 9.78382C10.0421 9.85884 10 9.96058 10 10.0667V12.6667ZM6 12.6667V8.73333C6 8.62724 5.95786 8.5255 5.88284 8.45049C5.80783 8.37547 5.70609 8.33333 5.6 8.33333H2.4C2.29391 8.33333 2.19217 8.37547 2.11716 8.45049C2.04214 8.5255 2 8.62724 2 8.73333V12.2667C2 12.3728 2.04214 12.4745 2.11716 12.5495C2.19217 12.6245 2.29391 12.6667 2.4 12.6667H6ZM10 3.33333H6" stroke="#828282" stroke-width="1.2" stroke-linecap="round" stroke-linejoin="round"/></svg>
