<svg width="16" height="16" viewBox="0 0 16 16" fill="none" xmlns="http://www.w3.org/2000/svg"><path d="M7.26257 9.82652L7.26259 9.82653C7.50193 9.956 7.76066 10.0124 8.01357 10.0053C7.95287 10.3555 7.84987 10.7019 7.68831 11.0215L5.71575 14.7402C5.71569 14.7403 5.71563 14.7404 5.71557 14.7405C5.46839 15.1972 4.89697 15.3671 4.43899 15.1195C3.98077 14.8717 3.81019 14.3004 4.05728 13.8434L4.05766 13.8427L6.00969 10.1615C6.27035 9.7399 6.82091 9.58749 7.26257 9.82652ZM7.52412 9.34324L7.5241 9.34322C6.79691 8.94996 5.88966 9.21917 5.49702 9.94555L4.05761 12.607C3.33745 11.5906 3.20856 10.2136 3.83842 9.04854C4.62976 7.58557 6.35514 6.94294 7.88592 7.45512C8.0008 7.94205 8.12235 8.68009 8.07736 9.45107C7.89234 9.47097 7.70012 9.43846 7.52412 9.34324ZM10.0151 6.05306L10.015 6.05307L10.0156 6.05452C10.0399 6.11882 10.3525 6.99292 10.4733 8.19263C10.5942 9.39313 10.522 10.9091 9.78807 12.2662L9.78791 12.2665L9.77564 12.2892L9.76395 12.3109C9.76382 12.3112 9.76368 12.3114 9.76355 12.3116C9.12505 13.4474 7.91828 14.0772 6.69013 14.0309L8.1298 11.3693L8.12981 11.3693C8.66585 10.378 8.69394 9.21226 8.59109 8.30026C8.49076 7.41053 8.26407 6.74748 8.24476 6.69449L8.24477 6.69448C8.06802 6.20457 8.31858 5.66438 8.80728 5.48909L8.80775 5.48892C9.29417 5.31171 9.83891 5.56415 10.0151 6.05306ZM12.4436 2.15659L12.4426 2.15846L11.7704 3.46698C11.5406 3.2586 11.2817 3.07512 10.9971 2.92121C10.7108 2.76622 10.4136 2.6496 10.1116 2.57132L10.7856 1.25892C11.0331 0.802516 11.6041 0.633043 12.0618 0.880479C12.5201 1.1283 12.6907 1.69966 12.4436 2.15659ZM6.15503 4.76516L6.15504 4.76515C7.04048 3.12798 9.09554 2.51731 10.7324 3.40254C12.3726 4.28964 12.9867 6.34388 12.1015 7.98083C11.8429 8.45898 11.4857 8.85034 11.0677 9.14044C11.0747 7.52519 10.6507 6.20109 10.5516 5.91496C10.4395 5.56135 10.1911 5.24923 9.8406 5.0596L9.84059 5.0596C9.11339 4.66633 8.20615 4.93555 7.81351 5.66193C7.6113 6.03591 7.5854 6.4587 7.70657 6.83261C7.06458 6.68128 6.40438 6.69992 5.78652 6.86477C5.68304 6.16524 5.79531 5.43003 6.15503 4.76516Z" fill="#828282" stroke="white" stroke-width="0.2"/></svg>
