<svg width="16" height="16" viewBox="0 0 16 16" fill="none" xmlns="http://www.w3.org/2000/svg"><path d="M14.5 10.5H14V4.5C14 4.10218 13.842 3.72064 13.5607 3.43934C13.2794 3.15804 12.8978 3 12.5 3H3.5C3.10218 3 2.72064 3.15804 2.43934 3.43934C2.15804 3.72064 2 4.10218 2 4.5V10.5H1.5C1.36739 10.5 1.24021 10.5527 1.14645 10.6464C1.05268 10.7402 1 10.8674 1 11V12C1 12.3978 1.15804 12.7794 1.43934 13.0607C1.72064 13.342 2.10218 13.5 2.5 13.5H13.5C13.8978 13.5 14.2794 13.342 14.5607 13.0607C14.842 12.7794 15 12.3978 15 12V11C15 10.8674 14.9473 10.7402 14.8536 10.6464C14.7598 10.5527 14.6326 10.5 14.5 10.5ZM3 4.5C3 4.36739 3.05268 4.24021 3.14645 4.14645C3.24021 4.05268 3.36739 4 3.5 4H12.5C12.6326 4 12.7598 4.05268 12.8536 4.14645C12.9473 4.24021 13 4.36739 13 4.5V10.5H3V4.5ZM14 12C14 12.1326 13.9473 12.2598 13.8536 12.3536C13.7598 12.4473 13.6326 12.5 13.5 12.5H2.5C2.36739 12.5 2.24021 12.4473 2.14645 12.3536C2.05268 12.2598 2 12.1326 2 12V11.5H14V12ZM9.5 5.5C9.5 5.63261 9.44732 5.75979 9.35355 5.85355C9.25979 5.94732 9.13261 6 9 6H7C6.86739 6 6.74021 5.94732 6.64645 5.85355C6.55268 5.75979 6.5 5.63261 6.5 5.5C6.5 5.36739 6.55268 5.24021 6.64645 5.14645C6.74021 5.05268 6.86739 5 7 5H9C9.13261 5 9.25979 5.05268 9.35355 5.14645C9.44732 5.24021 9.5 5.36739 9.5 5.5Z" fill="#828282"/></svg>
