<svg width="16" height="16" viewBox="0 0 16 16" fill="none" xmlns="http://www.w3.org/2000/svg">
<path d="M8.00004 14.6667C4.31804 14.6667 1.33337 11.682 1.33337 8C1.33337 4.318 4.31804 1.33334 8.00004 1.33334C11.682 1.33334 14.6667 4.318 14.6667 8C14.6667 11.682 11.682 14.6667 8.00004 14.6667ZM8.00004 13.3333C9.41453 13.3333 10.7711 12.7714 11.7713 11.7712C12.7715 10.771 13.3334 9.41449 13.3334 8C13.3334 6.58551 12.7715 5.22896 11.7713 4.22877C10.7711 3.22857 9.41453 2.66667 8.00004 2.66667C6.58555 2.66667 5.229 3.22857 4.2288 4.22877C3.22861 5.22896 2.66671 6.58551 2.66671 8C2.66671 9.41449 3.22861 10.771 4.2288 11.7712C5.229 12.7714 6.58555 13.3333 8.00004 13.3333ZM7.33337 10H8.66671V11.3333H7.33337V10ZM8.66671 8.90334V9.33334H7.33337V8.33334C7.33337 8.15652 7.40361 7.98696 7.52864 7.86193C7.65366 7.73691 7.82323 7.66667 8.00004 7.66667C8.18943 7.66666 8.37491 7.61287 8.53492 7.51156C8.69493 7.41024 8.82288 7.26558 8.90389 7.09439C8.98489 6.9232 9.01562 6.73253 8.99249 6.54456C8.96937 6.3566 8.89334 6.17906 8.77326 6.03261C8.65318 5.88616 8.49398 5.77682 8.31419 5.71732C8.13439 5.65781 7.9414 5.65058 7.75766 5.69647C7.57392 5.74236 7.40698 5.83949 7.27628 5.97655C7.14559 6.1136 7.05649 6.28496 7.01937 6.47067L5.71137 6.20867C5.79246 5.80339 5.97971 5.42692 6.25399 5.11773C6.52826 4.80854 6.87972 4.57772 7.27243 4.44888C7.66515 4.32004 8.08503 4.29779 8.48916 4.38441C8.89329 4.47103 9.26717 4.66341 9.57259 4.94189C9.878 5.22036 10.104 5.57494 10.2274 5.96938C10.3509 6.36382 10.3674 6.78396 10.2753 7.18687C10.1831 7.58978 9.98568 7.961 9.70305 8.26258C9.42043 8.56416 9.0628 8.78528 8.66671 8.90334Z" fill="#828282"/>
</svg>
