<svg width="16" height="16" viewBox="0 0 16 16" fill="none" xmlns="http://www.w3.org/2000/svg"><path d="M8.19996 8.14667C8.55568 7.83875 8.84099 7.45792 9.03654 7.03001C9.23209 6.60211 9.3333 6.13714 9.33329 5.66667C9.33329 4.78261 8.9821 3.93476 8.35698 3.30964C7.73186 2.68452 6.88401 2.33333 5.99996 2.33333C5.1159 2.33333 4.26806 2.68452 3.64294 3.30964C3.01782 3.93476 2.66663 4.78261 2.66663 5.66667C2.66662 6.13714 2.76783 6.60211 2.96338 7.03001C3.15893 7.45792 3.44424 7.83875 3.79996 8.14667C2.86672 8.56925 2.07494 9.25169 1.51928 10.1124C0.963623 10.973 0.667607 11.9755 0.666626 13C0.666626 13.1768 0.736864 13.3464 0.861888 13.4714C0.986912 13.5964 1.15648 13.6667 1.33329 13.6667C1.5101 13.6667 1.67967 13.5964 1.8047 13.4714C1.92972 13.3464 1.99996 13.1768 1.99996 13C1.99996 11.9391 2.42139 10.9217 3.17153 10.1716C3.92168 9.42143 4.93909 9 5.99996 9C7.06083 9 8.07824 9.42143 8.82839 10.1716C9.57853 10.9217 9.99996 11.9391 9.99996 13C9.99996 13.1768 10.0702 13.3464 10.1952 13.4714C10.3202 13.5964 10.4898 13.6667 10.6666 13.6667C10.8434 13.6667 11.013 13.5964 11.138 13.4714C11.2631 13.3464 11.3333 13.1768 11.3333 13C11.3323 11.9755 11.0363 10.973 10.4806 10.1124C9.92498 9.25169 9.1332 8.56925 8.19996 8.14667ZM5.99996 7.66667C5.6044 7.66667 5.21772 7.54937 4.88882 7.3296C4.55992 7.10984 4.30358 6.79748 4.1522 6.43203C4.00083 6.06658 3.96122 5.66445 4.03839 5.27649C4.11556 4.88852 4.30604 4.53216 4.58575 4.25245C4.86545 3.97275 5.22182 3.78227 5.60978 3.7051C5.99774 3.62793 6.39987 3.66753 6.76533 3.81891C7.13078 3.97028 7.44314 4.22663 7.6629 4.55553C7.88266 4.88442 7.99996 5.2711 7.99996 5.66667C7.99996 6.1971 7.78925 6.70581 7.41417 7.08088C7.0391 7.45595 6.53039 7.66667 5.99996 7.66667ZM12.4933 7.88C12.9199 7.39955 13.1986 6.80604 13.2958 6.17089C13.393 5.53575 13.3046 4.88605 13.0411 4.3C12.7777 3.71395 12.3505 3.21653 11.8109 2.86761C11.2714 2.5187 10.6425 2.33316 9.99996 2.33333C9.82315 2.33333 9.65358 2.40357 9.52855 2.5286C9.40353 2.65362 9.33329 2.82319 9.33329 3C9.33329 3.17681 9.40353 3.34638 9.52855 3.4714C9.65358 3.59643 9.82315 3.66667 9.99996 3.66667C10.5304 3.66667 11.0391 3.87738 11.4142 4.25245C11.7892 4.62753 12 5.13623 12 5.66667C11.999 6.01683 11.9062 6.3606 11.7307 6.66361C11.5552 6.96663 11.3032 7.21825 11 7.39333C10.9011 7.45035 10.8186 7.53178 10.7602 7.62983C10.7018 7.72788 10.6696 7.83927 10.6666 7.95333C10.6638 8.06651 10.6899 8.17853 10.7424 8.27884C10.7949 8.37915 10.8721 8.46443 10.9666 8.52667L11.2266 8.7L11.3133 8.74667C12.1169 9.12781 12.7948 9.73066 13.2673 10.4842C13.7397 11.2378 13.987 12.1106 13.98 13C13.98 13.1768 14.0502 13.3464 14.1752 13.4714C14.3002 13.5964 14.4698 13.6667 14.6466 13.6667C14.8234 13.6667 14.993 13.5964 15.118 13.4714C15.2431 13.3464 15.3133 13.1768 15.3133 13C15.3187 11.977 15.0625 10.9695 14.5689 10.0734C14.0754 9.17725 13.3609 8.42221 12.4933 7.88Z" fill="#828282"/></svg>
